/* XPM */
static char * buttonI_xpm[] = {
"60 19 6 1",
" 	c #DDDDDD",
".	c #000000",
"+	c #BBBBBB",
"@	c #FFFFFF",
"#	c #AAAAAA",
"$	c #777777",
"  ........................................................  ",
" .+                                                      +. ",
".+@@@@@@@@@@@@@@@@@@@@@@@@@@@@@@@@@@@@@@@@@@@@@@@@@@@@@@@ +.",
". @@                                                     #$.",
". @                                                      #$.",
". @                                                      #$.",
". @                                                      #$.",
". @                                                      #$.",
". @                                                      #$.",
". @                                                      #$.",
". @                                                      #$.",
". @                                                      #$.",
". @                                                      #$.",
". @                                                      #$.",
". @                                                      #$.",
". @                                                     ##$.",
".+ ######################################################$$.",
" .+$$$$$$$$$$$$$$$$$$$$$$$$$$$$$$$$$$$$$$$$$$$$$$$$$$$$$$$. ",
"  ........................................................  "};
