/* XPM */
static char * closeI_xpm[] = {
"17 36 2 1",
" 	c #DDDDDD",
".	c #555555",
"                 ",
"                 ",
"                 ",
"                 ",
"                 ",
"                 ",
"                 ",
"                 ",
"                 ",
"                 ",
"                 ",
"                 ",
"                 ",
"                 ",
"                 ",
"                 ",
"                 ",
".................",
"                 ",
"                 ",
"                 ",
"                 ",
"                 ",
"                 ",
"                 ",
"                 ",
"                 ",
"                 ",
"                 ",
"                 ",
"                 ",
"                 ",
"                 ",
"                 ",
"                 ",
"................."};
