/* XPM */
static char * frameIBR_xpm[] = {
"7 7 2 1",
" 	c #555555",
".	c #DDDDDD",
" ....  ",
".....  ",
".....  ",
".....  ",
".....  ",
"       ",
"       "};
