/* XPM */
static char * frameIT_xpm[] = {
"1 7 3 1",
" 	c None",
".	c #555555",
"+	c #DDDDDD",
" ",
".",
"+",
"+",
"+",
"+",
"+"};
