/* XPM */
static char * frameATR_xpm[] = {
"7 25 5 1",
" 	c None",
".	c #000000",
"+	c #FFFFFF",
"@	c #CCCCCC",
"#	c #999999",
"       ",
"...... ",
"++++@. ",
"@@@@#..",
"@@@@#..",
"@@@@#..",
"@@@@#..",
"@@@@#..",
"@@@@#..",
"@@@@#..",
"@@@@#..",
"@@@@#..",
"@@@@#..",
"@@@@#..",
"@@@@#..",
"@@@@#..",
"@@@@#..",
"@@@@#..",
"@@@@#..",
"@@@@#..",
"@@@@#..",
"@@@@#..",
"@@@@#..",
"#@@@#..",
".+@@#.."};
