/* XPM */
static char * frameAB_xpm[] = {
"1 7 4 1",
" 	c #000000",
".	c #FFFFFF",
"+	c #CCCCCC",
"@	c #999999",
" ",
".",
"+",
"+",
"@",
" ",
" "};
