/* XPM */
static char * frameIBR_xpm[] = {
"7 7 3 1",
" 	c None",
".	c #555555",
"+	c #DDDDDD",
".++++. ",
"+++++. ",
"+++++. ",
"+++++. ",
"+++++. ",
"...... ",
"       "};
