/* XPM */
static char * frameABR_xpm[] = {
"7 7 5 1",
" 	c None",
".	c #000000",
"+	c #FFFFFF",
"@	c #CCCCCC",
"#	c #999999",
".+@@#. ",
"++@@#. ",
"@@@@#. ",
"@@@@#. ",
"#####. ",
"...... ",
"       "};
