/* XPM */
static char * frameAB_xpm[] = {
"1 7 5 1",
" 	c None",
".	c #000000",
"+	c #FFFFFF",
"@	c #CCCCCC",
"#	c #999999",
".",
"+",
"@",
"@",
"#",
".",
" "};
