/* XPM */
static char * frameITR_xpm[] = {
"7 25 3 1",
" 	c None",
".	c #555555",
"+	c #DDDDDD",
"       ",
"...... ",
"+++++. ",
"+++++..",
"+++++..",
"+++++..",
"+++++..",
"+++++..",
"+++++..",
"+++++..",
"+++++..",
"+++++..",
"+++++..",
"+++++..",
"+++++..",
"+++++..",
"+++++..",
"+++++..",
"+++++..",
"+++++..",
"+++++..",
"+++++..",
"+++++..",
"+++++..",
".++++.."};
