/* XPM */
static char * frameAT_xpm[] = {
"1 7 4 1",
" 	c None",
".	c #000000",
"+	c #FFFFFF",
"@	c #CCCCCC",
" ",
".",
"+",
"@",
"@",
"@",
"@"};
