/* XPM */
static char * frameABR_xpm[] = {
"7 7 4 1",
" 	c #000000",
".	c #FFFFFF",
"+	c #CCCCCC",
"@	c #999999",
" .++@  ",
"..++@  ",
"++++@  ",
"++++@  ",
"@@@@@  ",
"       ",
"       "};
