/* XPM */
static char * frameIL_xpm[] = {
"7 1 3 1",
" 	c None",
".	c #555555",
"+	c #DDDDDD",
" .++++."};
