/* XPM */
static char * frameAL_xpm[] = {
"7 1 5 1",
" 	c None",
".	c #000000",
"+	c #FFFFFF",
"@	c #CCCCCC",
"#	c #999999",
" .+@@#."};
