/* XPM */
static char * maximizeA_xpm[] = {
"17 36 10 1",
" 	c #CCCCCC",
".	c #888888",
"+	c #222223",
"@	c #FFFFFF",
"#	c #999999",
"$	c #AAAAAA",
"%	c #BBBBBB",
"&	c #DDDDDD",
"*	c #EEEEEE",
"=	c #000000",
"    ............ ",
"    .+++++++++++@",
"    .+@    +   +@",
"    .+ ##$$+% .+@",
"    .+ #$$%+  .+@",
"    .+ $$%%+ &.+@",
"    .+ $%% +&&.+@",
"    .+++++++&*.+@",
"    .+ %  &&**.+@",
"    .+   &&**@.+@",
"    .+ ........+@",
"    .+++++++++++@",
"     @@@@@@@@@@@@",
"                 ",
"                 ",
"                 ",
"#################",
"=================",
"    ............ ",
"    .+++++++++++@",
"    .+@    +   +@",
"    .+ ##$$+% .+@",
"    .+ #$$%+  .+@",
"    .+ $$%%+ &.+@",
"    .+ $%% +&&.+@",
"    .+++++++&*.+@",
"    .+ %  &&**.+@",
"    .+   &&**@.+@",
"    .+ ........+@",
"    .+++++++++++@",
"     @@@@@@@@@@@@",
"                 ",
"                 ",
"                 ",
"#################",
"================="};
