/* XPM */
static char * titleAP_xpm[] = {
"4 18 3 1",
" 	c #CCCCCC",
".	c #999999",
"+	c #000000",
"    ",
"    ",
"    ",
"    ",
"    ",
"    ",
"    ",
"    ",
"    ",
"    ",
"    ",
"    ",
"    ",
"    ",
"    ",
"    ",
"....",
"++++"};
