/* XPM */
static char * titleAS_xpm[] = {
"1 18 5 1",
" 	c #FFFFFF",
".	c #777777",
"+	c #CCCCCC",
"@	c #999999",
"#	c #000000",
" ",
".",
" ",
".",
" ",
".",
" ",
".",
" ",
".",
" ",
".",
"+",
"+",
"+",
"+",
"@",
"#"};
