/* XPM */
static char * titleAT_xpm[] = {
"1 18 3 1",
" 	c #CCCCCC",
".	c #999999",
"+	c #000000",
" ",
" ",
" ",
" ",
" ",
" ",
" ",
" ",
" ",
" ",
" ",
" ",
" ",
" ",
" ",
" ",
".",
"+"};
