/* XPM */
static char * folder_16x16_xpm[] = {
"16 16 6 1",
" 	c None",
".	c #444444",
"+	c #6B59D3",
"@	c #9E8EFF",
"#	c #020202",
"$	c #CEC8FF",
"                ",
"                ",
"  .+++++++.     ",
" .@@@@@@@@@.    ",
"#+++++++++++### ",
"#$$$$$$$$$$$$$$#",
"#$$$$$$$$$$$$$$#",
"#$$$$$$$$$$$$$$#",
"#$$$$$$$$$$$$$$#",
"#$$$$$$$$$$$$$$#",
"#$$$$$$$$$$$$$$#",
"#$$$$$$$$$$$$$$#",
"#$$$$$$$$$$$$$$#",
"#$$$$$$$$$$$$$$#",
" ############## ",
"                "};
