/* XPM */
static char * xterm_32x32_xpm[] = {
"32 32 55 1",
" 	c None",
".	c #606060",
"+	c #5A5A5A",
"@	c #515151",
"#	c #4F4F4F",
"$	c #6F6F6F",
"%	c #E8E8E8",
"&	c #ADADAD",
"*	c #505050",
"=	c #E9E9E9",
"-	c #FFFFFF",
";	c #B8B8B8",
">	c #8D8D8D",
",	c #FDFDFD",
"'	c #BFBFBF",
")	c #525252",
"!	c #484848",
"~	c #828282",
"{	c #FBFBFB",
"]	c #CBCBCB",
"^	c #555555",
"/	c #494949",
"(	c #7A7A7A",
"_	c #F9F9F9",
":	c #DEDEDE",
"<	c #585858",
"[	c #4A4A4A",
"}	c #848484",
"|	c #FAFAFA",
"1	c #A7A7A7",
"2	c #686868",
"3	c #969696",
"4	c #A2A2A2",
"5	c #F8F8F8",
"6	c #D4D4D4",
"7	c #4D4D4D",
"8	c #6C6C6C",
"9	c #A0A0A0",
"0	c #9A9A9A",
"a	c #717171",
"b	c #3D3D3D",
"c	c #707070",
"d	c #7E7E7E",
"e	c #454545",
"f	c #E5E5E5",
"g	c #979797",
"h	c #949494",
"i	c #737373",
"j	c #474747",
"k	c #E3E3E3",
"l	c #E2E2E2",
"m	c #4C4C4C",
"n	c #414141",
"o	c #3F3F3F",
"p	c #424242",
"                                ",
"                                ",
"                                ",
"   ..........................   ",
"  +@########################@+  ",
"  @##########################@  ",
"  ###$%&*#####################  ",
"  ###=--;*####################  ",
"  ###>,--')###################  ",
"  ###!~{--]^##################  ",
"  ####/(_--:<#################  ",
"  #####[}|--1#################  ",
"  #####234567#################  ",
"  ####8940ab7#################  ",
"  ###c444de##f------f#########  ",
"  ###g44(e###--------#########  ",
"  ###)hij####k------l#########  ",
"  ###mnj#####noooooop#########  ",
"  ############################  ",
"  ############################  ",
"  ############################  ",
"  ############################  ",
"  ############################  ",
"  ############################  ",
"  ############################  ",
"  ############################  ",
"  m##########################7  ",
"   7########################7   ",
"                                ",
"                                ",
"                                ",
"                                "};
