/* XPM */
static char * start_tux_xpm[] = {
"27 20 119 2",
"  	c None",
". 	c #020204",
"+ 	c #0E0E10",
"@ 	c #383839",
"# 	c #18181A",
"$ 	c #020205",
"% 	c #07070A",
"& 	c #0F0F11",
"* 	c #393939",
"= 	c #070709",
"- 	c #A8A8A7",
"; 	c #828281",
"> 	c #A2A2A1",
", 	c #BDBDBC",
"' 	c #4E4E4E",
") 	c #9D978E",
"! 	c #C3A95A",
"~ 	c #CDBC7E",
"{ 	c #A39F92",
"] 	c #656565",
"^ 	c #C08E13",
"/ 	c #EDC51B",
"( 	c #F6D936",
"_ 	c #E3BA17",
": 	c #5D4508",
"< 	c #907E68",
"[ 	c #CEA20E",
"} 	c #CD9E2C",
"| 	c #C7B196",
"1 	c #737271",
"2 	c #4F4F50",
"3 	c #464645",
"4 	c #DCDCDA",
"5 	c #BBB7B3",
"6 	c #D2D1CE",
"7 	c #F6F6F4",
"8 	c #BCBCBB",
"9 	c #FDFDFB",
"0 	c #F8F8F6",
"a 	c #F9F9F7",
"b 	c #5E5E5D",
"c 	c #060608",
"d 	c #D8D8D6",
"e 	c #FCFCFA",
"f 	c #F4F4F2",
"g 	c #E1E1E0",
"h 	c #AEAEAC",
"i 	c #131315",
"j 	c #1D1D1E",
"k 	c #90908F",
"l 	c #646464",
"m 	c #262627",
"n 	c #D9D9D7",
"o 	c #FBFBF9",
"p 	c #A5A5A4",
"q 	c #2B2B2C",
"r 	c #1B1B1C",
"s 	c #AEAEAD",
"t 	c #272729",
"u 	c #775806",
"v 	c #765E33",
"w 	c #A9A9A8",
"x 	c #232325",
"y 	c #2C2C2D",
"z 	c #E5AC0A",
"A 	c #ECB50C",
"B 	c #A2998E",
"C 	c #E5CEAC",
"D 	c #B68F12",
"E 	c #69521B",
"F 	c #DFA70A",
"G 	c #F2B90D",
"H 	c #F4BC0D",
"I 	c #F5BD0D",
"J 	c #CA9C09",
"K 	c #6A6A69",
"L 	c #F0F0EE",
"M 	c #F5F5F3",
"N 	c #CDB18A",
"O 	c #DAA41A",
"P 	c #A47711",
"Q 	c #E5B01E",
"R 	c #EAB41E",
"S 	c #DCA408",
"T 	c #F4BD0D",
"U 	c #9B814A",
"V 	c #EEEEEC",
"W 	c #B18F5A",
"X 	c #F3BD21",
"Y 	c #F0BA20",
"Z 	c #F5C022",
"` 	c #F4BF22",
" .	c #E1AA1C",
"..	c #DBA509",
"+.	c #E4B138",
"@.	c #DEDBD7",
"#.	c #D7D7D5",
"$.	c #616160",
"%.	c #A97B11",
"&.	c #F5BF22",
"*.	c #EEB820",
"=.	c #BE8A11",
"-.	c #BC8605",
";.	c #D29B06",
">.	c #E1A908",
",.	c #EDB40B",
"'.	c #E6AD08",
").	c #624404",
"!.	c #000003",
"~.	c #010103",
"{.	c #A0710E",
"].	c #E7AE1C",
"^.	c #DBA218",
"/.	c #AC790C",
"(.	c #B28004",
"_.	c #9D6F02",
":.	c #634206",
"<.	c #885B08",
"[.	c #875B08",
"                        . . +                         ",
"                      . . . @ #                       ",
"                      $ % & * = .                     ",
"                      - ; > , ' .                     ",
"                      ) ! ~ { ] .                     ",
"                      ^ / ( _ : .                     ",
"                      < [ } | 1 2                     ",
"                    3 4 5 6 7 4 . .                   ",
"                  . 8 9 0 9 9 a b . .                 ",
"                  c d e 0 e f g h i .                 ",
"                j k 9 9 9 9 9 9 7 l m .               ",
"                j n 9 o o 9 9 9 9 p q .               ",
"                r a 9 a e 9 9 9 9 s t .               ",
"              u v e 9 0 e 9 9 9 9 w x y               ",
"              z A B 0 o e 9 9 9 C D . E               ",
"          F G H I J K L 9 9 9 M N O P Q R             ",
"          S I I I T U d 9 9 9 V W X Y Z `  .          ",
"          ..I I I I +.@.e e #.$.%.&.Z *.O =.          ",
"          -.;.>.,.H '.).!.~.. . {.].^./.              ",
"                  (._.          :.<.[.                "};
