/* XPM */
static char * start_haiku_xpm[] = {
"62 20 250 2",
"  	c #DDDDDD",
". 	c #D2D3D6",
"+ 	c #A5AFBA",
"@ 	c #8D9DB0",
"# 	c #788DA7",
"$ 	c #637F9F",
"% 	c #53759D",
"& 	c #54769D",
"* 	c #55779E",
"= 	c #5B7BA0",
"- 	c #6B87A4",
"; 	c #8296AD",
"> 	c #A2AEBB",
", 	c #DBDCDC",
"' 	c #58779C",
") 	c #194D90",
"! 	c #1A4F91",
"~ 	c #1A5093",
"{ 	c #1B5194",
"] 	c #1B5195",
"^ 	c #1C5396",
"/ 	c #1C5397",
"( 	c #1D5598",
"_ 	c #1D5599",
": 	c #1E579A",
"< 	c #1E579B",
"[ 	c #1F599C",
"} 	c #2D629D",
"| 	c #98A7B7",
"1 	c #A4AEBA",
"2 	c #55759B",
"3 	c #235391",
"4 	c #B1B9C2",
"5 	c #1F599D",
"6 	c #205A9E",
"7 	c #215C9F",
"8 	c #215CA0",
"9 	c #225EA1",
"0 	c #225EA2",
"a 	c #235FA1",
"b 	c #849BB1",
"c 	c #8094AA",
"d 	c #2D5B93",
"e 	c #285B96",
"f 	c #728CA8",
"g 	c #225FA2",
"h 	c #225FA4",
"i 	c #2361A5",
"j 	c #2462A6",
"k 	c #2462A7",
"l 	c #94A7B8",
"m 	c #C0C4C9",
"n 	c #5E7C9D",
"o 	c #1D5192",
"p 	c #205898",
"q 	c #4672A0",
"r 	c #2564A8",
"s 	c #2565A9",
"t 	c #2565AB",
"u 	c #2667AC",
"v 	c #2768AD",
"w 	c #2869AE",
"x 	c #6A8EAE",
"y 	c #BDC2C8",
"z 	c #4D719A",
"A 	c #194E92",
"B 	c #1F5A9F",
"C 	c #A6B1BD",
"D 	c #2B65A3",
"E 	c #286AAF",
"F 	c #286AB0",
"G 	c #296BB1",
"H 	c #3372AE",
"I 	c #A5B3C0",
"J 	c #95A9BB",
"K 	c #6782A1",
"L 	c #1B5094",
"M 	c #225FA3",
"N 	c #3870A7",
"O 	c #296BB2",
"P 	c #2A6EB4",
"Q 	c #2B6FB5",
"R 	c #2C71B6",
"S 	c #2C72B8",
"T 	c #2D73B9",
"U 	c #618EB3",
"V 	c #9AA7B6",
"W 	c #2A5C98",
"X 	c #2A6DB3",
"Y 	c #2C71B7",
"Z 	c #2D74BA",
"` 	c #2E76BC",
" .	c #2F77BD",
"..	c #2F78BE",
"+.	c #3079BF",
"@.	c #83A1B9",
"#.	c #BABFC6",
"$.	c #406B9B",
"%.	c #317BC1",
"&.	c #317BC2",
"*.	c #317CC3",
"=.	c #327EC4",
"-.	c #337FC5",
";.	c #588FB8",
">.	c #97A3B3",
",.	c #5F7D9F",
"'.	c #376497",
").	c #5A7CA0",
"!.	c #34669D",
"~.	c #307AC0",
"{.	c #3380C6",
"].	c #3481C8",
"^.	c #3482C9",
"/.	c #3583CA",
"(.	c #3584CA",
"_.	c #4088C2",
":.	c #939BAA",
"<.	c #97A3B1",
"[.	c #446996",
"}.	c #1A4F92",
"|.	c #5278A0",
"1.	c #7A92AA",
"2.	c #3380C7",
"3.	c #3685CC",
"4.	c #3686CD",
"5.	c #3787CE",
"6.	c #3787CF",
"7.	c #3788CF",
"8.	c #3888D0",
"9.	c #3A89CB",
"0.	c #BCC4C9",
"a.	c #2E4E81",
"b.	c #284980",
"c.	c #8C95A7",
"d.	c #9FA9B4",
"e.	c #2F5C93",
"f.	c #3B6EA1",
"g.	c #2965A5",
"h.	c #3584CB",
"i.	c #3889D1",
"j.	c #398AD2",
"k.	c #398BD3",
"l.	c #3A8CD4",
"m.	c #3A8CD5",
"n.	c #398BD4",
"o.	c #9EB2C0",
"p.	c #425D88",
"q.	c #0F3B7B",
"r.	c #19417D",
"s.	c #597091",
"t.	c #9BA3AF",
"u.	c #5B799B",
"v.	c #388AD2",
"w.	c #3A8DD5",
"x.	c #3B8ED7",
"y.	c #3B8FD8",
"z.	c #3C90D8",
"A.	c #3C90D9",
"B.	c #3C91DA",
"C.	c #82A6BE",
"D.	c #E0E0E0",
"E.	c #BABDC2",
"F.	c #7D8BA0",
"G.	c #425F8A",
"H.	c #15407E",
"I.	c #113E7F",
"J.	c #133E80",
"K.	c #395B8A",
"L.	c #6A7E9B",
"M.	c #919CAB",
"N.	c #B7BBC1",
"O.	c #BFC2C6",
"P.	c #305F95",
"Q.	c #2E76BB",
"R.	c #3B8ED6",
"S.	c #3D92DA",
"T.	c #3D92DB",
"U.	c #3D93DC",
"V.	c #3E94DD",
"W.	c #3E95DE",
"X.	c #4095D8",
"Y.	c #99B1C0",
"Z.	c #DCDCDC",
"`.	c #9EA5B2",
" +	c #667C99",
".+	c #395C8B",
"++	c #194786",
"@+	c #164889",
"#+	c #16488B",
"$+	c #174A8D",
"%+	c #21518F",
"&+	c #305D93",
"*+	c #396596",
"=+	c #235797",
"-+	c #3E96E0",
";+	c #3F97E0",
">+	c #3F97E1",
",+	c #4098E1",
"'+	c #4F99CD",
")+	c #C3C9CC",
"!+	c #B8BCC1",
"~+	c #99A4B1",
"{+	c #7C90A5",
"]+	c #6983A0",
"^+	c #5E7C9E",
"/+	c #53779D",
"(+	c #567A9F",
"_+	c #2D639D",
":+	c #4099E2",
"<+	c #419AE2",
"[+	c #81A8BF",
"}+	c #9CB3C1",
"|+	c #9AB2C1",
"1+	c #9DB4C2",
"2+	c #C2C5C8",
"3+	c #366FA5",
"4+	c #3F96DF",
"5+	c #409AE4",
"6+	c #419BE5",
"7+	c #419CE5",
"8+	c #429DE6",
"9+	c #439EE7",
"0+	c #439DE4",
"a+	c #76A5C2",
"b+	c #CED0D1",
"c+	c #5081AB",
"d+	c #4099E3",
"e+	c #419BE4",
"f+	c #429CE5",
"g+	c #429EE7",
"h+	c #439FE8",
"i+	c #43A0E9",
"j+	c #44A1EA",
"k+	c #44A2EB",
"l+	c #64A1C7",
"m+	c #7899B3",
"n+	c #327BC0",
"o+	c #439FE7",
"p+	c #44A2EC",
"q+	c #45A3EC",
"r+	c #45A4ED",
"s+	c #79A8C3",
"t+	c #A5ADB2",
"u+	c #4686B7",
"v+	c #449FE6",
"w+	c #46A5EE",
"x+	c #46A5EF",
"y+	c #46A6EF",
"z+	c #47A2E6",
"A+	c #86A3B3",
"                                                                                            . + @ # $ % & * = - ; > ,       ",
"                                                                                          ' ) ! ~ { ] ^ / ( _ : < [ [ } |   ",
"                                                                                1 2 3   4 { ] / ( _ < [ 5 6 7 8 9 0 a b     ",
"                                                                            c d ! ~ e   f _ < [ 6 7 9 0 g h i j k k l       ",
"                                                                      m n o ~ ] / _ p   q 7 9 g h j k r s t u v w x         ",
"                                                                  y z A ] / _ [ 5 B 9 C D k r s t v w E F G H I J           ",
"                                                                K L / _ [ 6 7 0 M j k N u w E F O P Q R S S T U             ",
"                                                            V W _ < 5 7 0 h k r t v E G X Q Y S T Z `  ...+.+.@.            ",
"                                                        #.$.: [ 7 0 h k s t w F O Q Y T Z ` ..+.%.&.*.*.=.-.;.              ",
"                                              >.,.'.).  !.B 9 M j r t w F X R S Z ` ..~.&.*.-.{.].^./.(.(._.                ",
":.                                      <.[.}.] ( : |.1.g i k t w F X R T Z  .~.&.*.-.2.^.(.3.4.5.6.7.8.9.0.                ",
"a.b.c.                              d.e.~ ^ _ < 6 8 f.g.s v E O Q S Z  .~.*.-.2.^.h.4.6.7.i.j.k.l.l.m.n.o.                  ",
"p.q.q.r.s.t.                      u.~ ^ _ [ B 9 h k t w F P Y T  .~.*.-.]./.3.5.8.v.k.m.w.x.y.z.A.A.B.C.                    ",
"D.E.F.G.H.I.J.K.L.M.N.        O.P./ _ [ B 0 i r u w O R T Q.+.&.=.2./.3.6.i.j.m.R.y.A.S.T.U.V.V.W.X.Y.                      ",
"D.D.D.D.Z.`. +.+++@+#+$+%+&+*+=+_ [ 7 0 i r u E X Y T  .~.*.{./.3.6.i.k.w.x.A.S.U.V.W.-+;+>+,+,+'+)+                        ",
"D.D.D.D.D.D.D.D.D.!+~+{+]+^+/+(+_+0 i s v F P S Z ..%.=.].(.5.8.j.m.x.A.T.V.W.;+,+:+<+[+}+}+|+1+                            ",
"D.D.D.D.D.D.D.D.D.D.D.D.D.D.D.D.2+3+v F P S Q...&.-.^.3.6.v.l.R.A.T.V.4+>+:+5+6+7+8+9+0+a+0.                                ",
"D.D.D.D.D.D.D.D.D.D.D.D.D.D.D.D.D.b+c+S Q.+.&.{.^.3.7.j.w.y.S.U.W.>+d+e+f+8+g+h+i+i+j+j+k+l+                                ",
"D.D.D.D.D.D.D.D.D.D.D.D.D.D.D.D.D.D.D.m+n+{./.4.8.k.w.z.T.V.-+:+5+f+8+o+h+j+k+p+q+r+r+r+s+                                  ",
"D.D.D.D.D.D.D.D.D.D.D.D.D.D.D.D.D.D.D.D.t+u+8.k.R.A.T.W.;+d+6+8+g+v+j+k+q+r+w+x+y+y+z+A+                                    "};
