/* XPM */
static char * taskbarbg_xpm[] = {
"1 26 5 1",
" 	c None",
".	c #FFFFFF",
"+	c #DDDDDD",
"@	c #999999",
"#	c #000000",
".",
"+",
"+",
"+",
"+",
"+",
"+",
"+",
"+",
"+",
"+",
"+",
"+",
"+",
"+",
"+",
"+",
"+",
"+",
"+",
"+",
"+",
"+",
"@",
"#",
" "};
