/* XPM */
static char * toolbuttonbg_xpm[] = {
"1 25 3 1",
" 	c #FFFFFF",
".	c #DDDDDD",
"+	c #999999",
" ",
".",
".",
".",
".",
".",
".",
".",
".",
".",
".",
".",
".",
".",
".",
".",
".",
".",
".",
".",
".",
".",
".",
".",
"+"};
