/* XPM */
static char * windows_xpm[] = {
"22 20 93 2",
"  	c None",
". 	c #212121",
"+ 	c #A1B1E4",
"@ 	c #93A5DF",
"# 	c #93A5E0",
"$ 	c #767E9D",
"% 	c #7B869A",
"& 	c #B5C7E5",
"* 	c #7892DB",
"= 	c #5B7ED5",
"- 	c #5C7ED5",
"; 	c #5677CA",
"> 	c #3D485F",
", 	c #95AFD9",
"' 	c #98B3DD",
") 	c #98B3DC",
"! 	c #98B2DD",
"~ 	c #B4C6E4",
"{ 	c #5475CE",
"] 	c #4F6EC9",
"^ 	c #3C518F",
"/ 	c #7E92B1",
"( 	c #94AED7",
"_ 	c #7A90B2",
": 	c #99B3DD",
"< 	c #B4C6E5",
"[ 	c #4967C3",
"} 	c #3953B4",
"| 	c #5979CD",
"1 	c #3E485E",
"2 	c #96B1DA",
"3 	c #8FA8D0",
"4 	c #333D4E",
"5 	c #99B4DF",
"6 	c #4F6FC9",
"7 	c #4764C1",
"8 	c #4A64AC",
"9 	c #6E809E",
"0 	c #92ACD4",
"a 	c #647692",
"b 	c #99B4DE",
"c 	c #33467E",
"d 	c #8AA1C6",
"e 	c #343D5B",
"f 	c #95AFD7",
"g 	c #5A7BD0",
"h 	c #30384A",
"i 	c #7489A9",
"j 	c #7489AA",
"k 	c #768CAD",
"l 	c #97B1DB",
"m 	c #5B7DD3",
"n 	c #4966AD",
"o 	c #4864AC",
"p 	c #445EA3",
"q 	c #464F5F",
"r 	c #435EBB",
"s 	c #4F6EC8",
"t 	c #5A7DD4",
"u 	c #526FBF",
"v 	c #617189",
"w 	c #869DC1",
"x 	c #7183A0",
"y 	c #98B2DB",
"z 	c #3850B2",
"A 	c #233FAB",
"B 	c #2F4AAF",
"C 	c #3B56B6",
"D 	c #3E58B6",
"E 	c #354998",
"F 	c #414B5B",
"G 	c #536075",
"H 	c #46505F",
"I 	c #627289",
"J 	c #859CC0",
"K 	c #98B2DC",
"L 	c #B5C6E4",
"M 	c #5678D0",
"N 	c #5273CD",
"O 	c #506FC8",
"P 	c #455DAB",
"Q 	c #5D6C84",
"R 	c #93ABD2",
"S 	c #5573C4",
"T 	c #58657A",
"U 	c #8AA0DF",
"V 	c #758FDA",
"W 	c #738CD5",
"X 	c #3F4554",
"Y 	c #A4B9DC",
"Z 	c #A5BCE0",
"` 	c #BCCDE8",
" .	c #191919",
"                                            ",
"                                            ",
"                        .                   ",
"    + @ @ @ @ @ @ @ # $ % & & & & & &       ",
"    * = = - - - - - ; > , ' ) ) ! ! ! ~     ",
"    * = = - { ] = - ^ / ! ( _ : ! ! ! <     ",
"    * = = - [ } - | 1 2 ! 3 4 5 ! ! ! ~     ",
"    * = = - 6 7 - 8 9 ' ' 0 a b ! ! ! ~     ",
"    * - - = = - - c d ! ) ) ' ! ) ) ) ~     ",
"    * - - - = - - e f ! ) ) ! ! ) ) ) ~     ",
"    * - - - - - g h i j k l ' ' ' ' ' ~     ",
"    * - - - = - m n o p q : ! ! ' ) ) ~     ",
"    * - - r s t - = = u v ' l w x y ) ~     ",
"    * - - s z A B C D E F G H I J K ) L     ",
"    * - - - = = M N O P Q R K ' ' ) ) ~     ",
"    * = = - - = = - - S T ' ) ) ! ! ! ~     ",
"    U V V V V V V V V W X Y Z Z Z Z Z `     ",
"                         .                  ",
"                                            ",
"                                            "};
