/* XPM */
static char * windows_xpm[] = {
"20 20 3 1",
" 	c None",
".	c #383838",
"+	c #848484",
"                    ",
"                    ",
" ........           ",
" .++++++.  ........ ",
" .      .  .++++++. ",
" .      .  .      . ",
" .      .  .      . ",
" .      .  .      . ",
" .      .  .      . ",
" ........  .      . ",
"           .      . ",
"   ....... .      . ",
"   .+++++. .      . ",
"   .     . .      . ",
"   .     . .      . ",
"   .     . .      . ",
"   .     . ........ ",
"   .......          ",
"                    ",
"                    "};
