/* XPM */
static char * workspacebuttonactive_xpm[] = {
"26 26 3 1",
" 	c #FFFFFF",
".	c #888888",
"+	c #999999",
"                          ",
"..........................",
"..........................",
"..........................",
"..........................",
"..........................",
"..........................",
"..........................",
"..........................",
"..........................",
"..........................",
"..........................",
"..........................",
"..........................",
"..........................",
"..........................",
"..........................",
"..........................",
"..........................",
"..........................",
"..........................",
"..........................",
"..........................",
"..........................",
"..........................",
"++++++++++++++++++++++++++"};
