/* XPM */
static char * workspacebuttonbg_xpm[] = {
"26 26 3 1",
" 	c #FFFFFF",
".	c #DDDDDD",
"+	c #999999",
"                          ",
"..........................",
"..........................",
"..........................",
"..........................",
"..........................",
"..........................",
"..........................",
"..........................",
"..........................",
"..........................",
"..........................",
"..........................",
"..........................",
"..........................",
"..........................",
"..........................",
"..........................",
"..........................",
"..........................",
"..........................",
"..........................",
"..........................",
"..........................",
"..........................",
"++++++++++++++++++++++++++"};
