/* XPM */
static char * xterm_16x16_xpm[] = {
"16 16 21 1",
" 	c None",
".	c #4F4F4F",
"+	c #505050",
"@	c #DCDCDC",
"#	c #8C8C8C",
"$	c #818181",
"%	c #F7F7F7",
"&	c #939393",
"*	c #7D7D7D",
"=	c #F8F8F8",
"-	c #A9A9A9",
";	c #646464",
">	c #B4B4B4",
",	c #A5A5A5",
"'	c #666666",
")	c #9E9E9E",
"!	c #6F6F6F",
"~	c #919191",
"{	c #6D6D6D",
"]	c #F6F6F6",
"^	c #FFFFFF",
"                ",
"...............+",
"................",
"..@#............",
"..$%&...........",
"...*=-..........",
"...;>,..........",
"..')!...........",
"..~{...]^^].....",
"................",
"................",
"................",
"................",
"................",
"+...............",
"                "};
