/* XPM */
static char * puffy_xpm[] = {
"27 20 94 2",
"  	c None",
". 	c #847035",
"+ 	c #000000",
"@ 	c #64572A",
"# 	c #AD9449",
"$ 	c #B09A4E",
"% 	c #A28E49",
"& 	c #D8B95A",
"* 	c #DABC5E",
"= 	c #9D8641",
"- 	c #624E24",
"; 	c #6D5727",
"> 	c #A69751",
", 	c #D7C66C",
"' 	c #E3CE6F",
") 	c #E6D373",
"! 	c #C7B865",
"~ 	c #F1DA74",
"{ 	c #CAB45D",
"] 	c #DDC263",
"^ 	c #C7A850",
"/ 	c #544520",
"( 	c #E9DA79",
"_ 	c #F6E47E",
": 	c #CBC06C",
"< 	c #F9EB84",
"[ 	c #E8D877",
"} 	c #F4DF7A",
"| 	c #C4AD5A",
"1 	c #AA8F44",
"2 	c #45391A",
"3 	c #9C9352",
"4 	c #EFE785",
"5 	c #ECE280",
"6 	c #F2DC77",
"7 	c #F0D873",
"8 	c #D4B154",
"9 	c #D2BF65",
"0 	c #FBEF87",
"a 	c #EDE482",
"b 	c #FEF48C",
"c 	c #DED57A",
"d 	c #FCF089",
"e 	c #FDF18A",
"f 	c #FBEE87",
"g 	c #DACD73",
"h 	c #FFF68E",
"i 	c #FDF38B",
"j 	c #FAED86",
"k 	c #FDF28A",
"l 	c #F7E881",
"m 	c #AEA760",
"n 	c #786D3A",
"o 	c #FBEF88",
"p 	c #FFF58D",
"q 	c #CFC772",
"r 	c #EFEFEF",
"s 	c #BEBEBE",
"t 	c #999999",
"u 	c #B89242",
"v 	c #D0AB4E",
"w 	c #897D43",
"x 	c #EADC7C",
"y 	c #F9EA83",
"z 	c #BFB96B",
"A 	c #917536",
"B 	c #F4DF79",
"C 	c #EFE560",
"D 	c #BFB74D",
"E 	c #EACD68",
"F 	c #BEB668",
"G 	c #FCF088",
"H 	c #BFB85C",
"I 	c #DFD66C",
"J 	c #746532",
"K 	c #D6B658",
"L 	c #F7E57E",
"M 	c #FFF57B",
"N 	c #B79948",
"O 	c #776936",
"P 	c #BBAF62",
"Q 	c #E8CB68",
"R 	c #BA9F4E",
"S 	c #71602E",
"T 	c #F8E881",
"U 	c #BEA553",
"V 	c #D1AD52",
"W 	c #83783B",
"X 	c #E5C764",
"Y 	c #97813A",
"Z 	c #B7A85C",
"` 	c #E0C96A",
" .	c #B3A154",
"..	c #7A602B",
"                                                      ",
"                              . +                     ",
"                    @ # $ % & * = - ;                 ",
"                    > , ' ) ! ~ { ] ^ /               ",
"              @   , ( _ : < [ ) } | ] 1 2             ",
"                3 ( : < 4 ( 4 5 ( 6 7 ] 8             ",
"              9 ( 0 a b c 4 d e f [ [ ! &             ",
"              ) g 5 c d h i j d k l ! c m %           ",
"            n , < 4 o 4 o h o p d f q r s t           ",
"      u v   w x ( c o h h i h h d < y g z m A         ",
"        ^ * 9 g < < 4 i 4 j j b b d 5 B | C D         ",
"        # E ) ( F 5 4 c 5 g d i < G l ' H I u J       ",
"          K | ' ( 4 < , i g h e 5 x L , 9 M N ! O     ",
"          =   w ) g c P : d 4 k 5 x ~ Q R ^           ",
"              S ) [ x a ( c < g T ) ] U V /           ",
"                W | g x [ x x x [ 9 X V Y             ",
"                    Z 9 ` ! ) Z 9 K ^ A               ",
"                    - J $  .$ & # 1 ..                ",
"                            + ;                       ",
"                                                      "};
