/* XPM */
static char * start_haiku_xpm[] = {
"62 20 254 2",
"  	c #E0E0E0",
". 	c #CCCED2",
"+ 	c #A5AFBA",
"@ 	c #8D9DB0",
"# 	c #788DA7",
"$ 	c #637F9F",
"% 	c #53759D",
"& 	c #54769D",
"* 	c #55779E",
"= 	c #5B7BA0",
"- 	c #6B87A4",
"; 	c #8296AD",
"> 	c #A2AEBB",
", 	c #D0D3D5",
"' 	c #58779C",
") 	c #194D90",
"! 	c #1A4F91",
"~ 	c #1A5093",
"{ 	c #1B5194",
"] 	c #1B5195",
"^ 	c #1C5396",
"/ 	c #1C5397",
"( 	c #1D5598",
"_ 	c #1D5599",
": 	c #1E579A",
"< 	c #1E579B",
"[ 	c #1F599C",
"} 	c #2D629D",
"| 	c #98A7B7",
"1 	c #A4AEBA",
"2 	c #55759B",
"3 	c #235391",
"4 	c #B1B9C2",
"5 	c #1F599D",
"6 	c #205A9E",
"7 	c #215C9F",
"8 	c #215CA0",
"9 	c #225EA1",
"0 	c #225EA2",
"a 	c #235FA1",
"b 	c #849BB1",
"c 	c #DCDCDD",
"d 	c #8094AA",
"e 	c #2D5B93",
"f 	c #285B96",
"g 	c #728CA8",
"h 	c #225FA2",
"i 	c #225FA4",
"j 	c #2361A5",
"k 	c #2462A6",
"l 	c #2462A7",
"m 	c #94A7B8",
"n 	c #C0C4C9",
"o 	c #5E7C9D",
"p 	c #1D5192",
"q 	c #205898",
"r 	c #4672A0",
"s 	c #2564A8",
"t 	c #2565A9",
"u 	c #2565AB",
"v 	c #2667AC",
"w 	c #2768AD",
"x 	c #2869AE",
"y 	c #6A8EAE",
"z 	c #BDC2C8",
"A 	c #4D719A",
"B 	c #194E92",
"C 	c #1F5A9F",
"D 	c #A6B1BD",
"E 	c #2B65A3",
"F 	c #286AAF",
"G 	c #286AB0",
"H 	c #296BB1",
"I 	c #3372AE",
"J 	c #A5B3C0",
"K 	c #95A9BB",
"L 	c #6782A1",
"M 	c #1B5094",
"N 	c #225FA3",
"O 	c #3870A7",
"P 	c #296BB2",
"Q 	c #2A6EB4",
"R 	c #2B6FB5",
"S 	c #2C71B6",
"T 	c #2C72B8",
"U 	c #2D73B9",
"V 	c #618EB3",
"W 	c #9AA7B6",
"X 	c #2A5C98",
"Y 	c #2A6DB3",
"Z 	c #2C71B7",
"` 	c #2D74BA",
" .	c #2E76BC",
"..	c #2F77BD",
"+.	c #2F78BE",
"@.	c #3079BF",
"#.	c #83A1B9",
"$.	c #BABFC6",
"%.	c #406B9B",
"&.	c #317BC1",
"*.	c #317BC2",
"=.	c #317CC3",
"-.	c #327EC4",
";.	c #337FC5",
">.	c #588FB8",
",.	c #D2D4D6",
"'.	c #97A3B3",
").	c #5F7D9F",
"!.	c #376497",
"~.	c #5A7CA0",
"{.	c #34669D",
"].	c #307AC0",
"^.	c #3380C6",
"/.	c #3481C8",
"(.	c #3482C9",
"_.	c #3583CA",
":.	c #3584CA",
"<.	c #4088C2",
"[.	c #939BAA",
"}.	c #97A3B1",
"|.	c #446996",
"1.	c #1A4F92",
"2.	c #5278A0",
"3.	c #7A92AA",
"4.	c #3380C7",
"5.	c #3685CC",
"6.	c #3686CD",
"7.	c #3787CE",
"8.	c #3787CF",
"9.	c #3788CF",
"0.	c #3888D0",
"a.	c #3A89CB",
"b.	c #BCC4C9",
"c.	c #2E4E81",
"d.	c #284980",
"e.	c #8C95A7",
"f.	c #DDDDDE",
"g.	c #9FA9B4",
"h.	c #2F5C93",
"i.	c #3B6EA1",
"j.	c #2965A5",
"k.	c #3584CB",
"l.	c #3889D1",
"m.	c #398AD2",
"n.	c #398BD3",
"o.	c #3A8CD4",
"p.	c #3A8CD5",
"q.	c #398BD4",
"r.	c #9EB2C0",
"s.	c #425D88",
"t.	c #0F3B7B",
"u.	c #19417D",
"v.	c #597091",
"w.	c #9BA3AF",
"x.	c #D7D7D9",
"y.	c #5B799B",
"z.	c #388AD2",
"A.	c #3A8DD5",
"B.	c #3B8ED7",
"C.	c #3B8FD8",
"D.	c #3C90D8",
"E.	c #3C90D9",
"F.	c #3C91DA",
"G.	c #82A6BE",
"H.	c #BABDC2",
"I.	c #7D8BA0",
"J.	c #425F8A",
"K.	c #15407E",
"L.	c #113E7F",
"M.	c #133E80",
"N.	c #395B8A",
"O.	c #6A7E9B",
"P.	c #919CAB",
"Q.	c #B7BBC1",
"R.	c #DFDFDF",
"S.	c #BFC2C6",
"T.	c #305F95",
"U.	c #2E76BB",
"V.	c #3B8ED6",
"W.	c #3D92DA",
"X.	c #3D92DB",
"Y.	c #3D93DC",
"Z.	c #3E94DD",
"`.	c #3E95DE",
" +	c #4095D8",
".+	c #99B1C0",
"++	c #DCDCDC",
"@+	c #9EA5B2",
"#+	c #667C99",
"$+	c #395C8B",
"%+	c #194786",
"&+	c #164889",
"*+	c #16488B",
"=+	c #174A8D",
"-+	c #21518F",
";+	c #305D93",
">+	c #396596",
",+	c #235797",
"'+	c #3E96E0",
")+	c #3F97E0",
"!+	c #3F97E1",
"~+	c #4098E1",
"{+	c #4F99CD",
"]+	c #C3C9CC",
"^+	c #B8BCC1",
"/+	c #99A4B1",
"(+	c #7C90A5",
"_+	c #6983A0",
":+	c #5E7C9E",
"<+	c #53779D",
"[+	c #567A9F",
"}+	c #2D639D",
"|+	c #4099E2",
"1+	c #419AE2",
"2+	c #81A8BF",
"3+	c #9CB3C1",
"4+	c #9AB2C1",
"5+	c #9DB4C2",
"6+	c #C2C5C8",
"7+	c #366FA5",
"8+	c #3F96DF",
"9+	c #409AE4",
"0+	c #419BE5",
"a+	c #419CE5",
"b+	c #429DE6",
"c+	c #439EE7",
"d+	c #439DE4",
"e+	c #76A5C2",
"f+	c #CED0D1",
"g+	c #5081AB",
"h+	c #4099E3",
"i+	c #419BE4",
"j+	c #429CE5",
"k+	c #429EE7",
"l+	c #439FE8",
"m+	c #43A0E9",
"n+	c #44A1EA",
"o+	c #44A2EB",
"p+	c #64A1C7",
"q+	c #7899B3",
"r+	c #327BC0",
"s+	c #439FE7",
"t+	c #44A2EC",
"u+	c #45A3EC",
"v+	c #45A4ED",
"w+	c #79A8C3",
"x+	c #A5ADB2",
"y+	c #4686B7",
"z+	c #449FE6",
"A+	c #46A5EE",
"B+	c #46A5EF",
"C+	c #46A6EF",
"D+	c #47A2E6",
"E+	c #86A3B3",
"                                                                                            . + @ # $ % & * = - ; > ,       ",
"                                                                                          ' ) ! ~ { ] ^ / ( _ : < [ [ } |   ",
"                                                                                1 2 3   4 { ] / ( _ < [ 5 6 7 8 9 0 a b     ",
"                                                                          c d e ! ~ f   g _ < [ 6 7 9 0 h i j k l l m       ",
"                                                                      n o p ~ ] / _ q   r 7 9 h i k l s t u v w x y         ",
"                                                                  z A B ] / _ [ 5 C 9 D E l s t u w x F G H I J K           ",
"                                                                L M / _ [ 6 7 0 N k l O v x F G P Q R S T T U V             ",
"                                                            W X _ < 5 7 0 i l s u w F H Y R Z T U `  ...+.@.@.#.            ",
"                                                        $.%.: [ 7 0 i l t u x G P R Z U `  .+.@.&.*.=.=.-.;.>.              ",
"                                            ,.'.).!.~.  {.C 9 N k s u x G Y S T `  .+.].*.=.;.^./.(._.:.:.<.                ",
"[.                                      }.|.1.] ( : 2.3.h j l u x G Y S U ` ..].*.=.;.4.(.:.5.6.7.8.9.0.a.b.                ",
"c.d.e.f.                            g.h.~ ^ _ < 6 8 i.j.t w F P R T ` ..].=.;.4.(.k.6.8.9.l.m.n.o.o.p.q.r.                  ",
"s.t.t.u.v.w.f.                  x.y.~ ^ _ [ C 9 i l u x G Q Z U ..].=.;./._.5.7.0.z.n.p.A.B.C.D.E.E.F.G.                    ",
"  H.I.J.K.L.M.N.O.P.Q.R.      S.T./ _ [ C 0 j s v x P S U U.@.*.-.4._.5.8.l.m.p.V.C.E.W.X.Y.Z.Z.`. +.+                      ",
"        ++@+#+$+%+&+*+=+-+;+>+,+_ [ 7 0 j s v F Y Z U ..].=.^._.5.8.l.n.A.B.E.W.Y.Z.`.'+)+!+~+~+{+]+                        ",
"                  ^+/+(+_+:+<+[+}+0 j t w G Q T ` +.&.-./.:.7.0.m.p.B.E.X.Z.`.)+~+|+1+2+3+3+4+5+                            ",
"                                6+7+w G Q T U.+.*.;.(.5.8.z.o.V.E.X.Z.8+!+|+9+0+a+b+c+d+e+b.                                ",
"                                  f+g+T U.@.*.^.(.5.9.m.A.C.W.Y.`.!+h+i+j+b+k+l+m+m+n+n+o+p+                                ",
"                                      q+r+^._.6.0.n.A.D.X.Z.'+|+9+j+b+s+l+n+o+t+u+v+v+v+w+                                  ",
"                                        x+y+0.n.V.E.X.`.)+h+0+b+k+z+n+o+u+v+A+B+C+C+D+E+                                    "};
