/* XPM */
static char * taskbarbg_xpm[] = {
"1 26 2 1",
" 	c #E0E0E0",
".	c #CFCFCF",
" ",
" ",
" ",
" ",
" ",
" ",
" ",
" ",
" ",
" ",
" ",
" ",
" ",
" ",
" ",
" ",
" ",
" ",
" ",
" ",
" ",
" ",
" ",
" ",
" ",
"."};
