/* XPM */
static char * workspacebuttonbg_xpm[] = {
"26 26 3 1",
" 	c #F6F6F6",
".	c #E0E0E0",
"+	c #CFCFCF",
"                          ",
"..........................",
"..........................",
"..........................",
"..........................",
"..........................",
"..........................",
"..........................",
"..........................",
"..........................",
"..........................",
"..........................",
"..........................",
"..........................",
"..........................",
"..........................",
"..........................",
"..........................",
"..........................",
"..........................",
"..........................",
"..........................",
"..........................",
"..........................",
"..........................",
"++++++++++++++++++++++++++"};
