/* XPM */
static char * buttonA_xpm[] = {
"60 19 3 1",
" 	c #282828",
".	c #000000",
"+	c #606060",
"  ........................................................  ",
" .++++++++++++++++++++++++++++++++++++++++++++++++++++++++. ",
".++                                                      ++.",
".+                                                        +.",
".+                                                        +.",
".+                                                        +.",
".+                                                        +.",
".+                                                        +.",
".+                                                        +.",
".+                                                        +.",
".+                                                        +.",
".+                                                        +.",
".+                                                        +.",
".+                                                        +.",
".+                                                        +.",
".+                                                        +.",
".++                                                      ++.",
" .++++++++++++++++++++++++++++++++++++++++++++++++++++++++. ",
"  ........................................................  "};
