/* XPM */
static char * closeA_xpm[] = {
"17 36 3 1",
" 	c #FF4440",
".	c #383838",
"+	c #000000",
"             ....",
" +++++++++++ ....",
" +         + ....",
" +         + ....",
" +         + ....",
" +         + ....",
" +         + ....",
" +         + ....",
" +         + ....",
" +         + ....",
" +         + ....",
" +++++++++++ ....",
"             ....",
".................",
".................",
".................",
".................",
"+++++++++++++++++",
"             ....",
" +++++++++++ ....",
" +         + ....",
" +         + ....",
" +         + ....",
" +         + ....",
" +         + ....",
" +         + ....",
" +         + ....",
" +         + ....",
" +         + ....",
" +++++++++++ ....",
"             ....",
".................",
".................",
".................",
".................",
"+++++++++++++++++"};
