/* XPM */
static char * frameIBR_xpm[] = {
"7 7 4 1",
" 	c None",
".	c #000000",
"+	c #282828",
"@	c #606060",
".+++@. ",
"++++@. ",
"++++@. ",
"++++@. ",
"@@@@@. ",
"...... ",
"       "};
