/* XPM */
static char * frameABL_xpm[] = {
"7 7 4 1",
" 	c None",
".	c #000000",
"+	c #707070",
"@	c #383838",
" .+@@@.",
" .+@@@@",
" .+@@@@",
" .+@@@@",
" .+++++",
" ......",
"       "};
