/* XPM */
static char * frameAL_xpm[] = {
"7 1 4 1",
" 	c None",
".	c #000000",
"+	c #707070",
"@	c #383838",
" .+@@@."};
