/* XPM */
static char * frameIR_xpm[] = {
"7 1 4 1",
" 	c None",
".	c #000000",
"+	c #282828",
"@	c #606060",
".+++@. "};
