/* XPM */
static char * frameITR_xpm[] = {
"7 25 4 1",
" 	c None",
".	c #000000",
"+	c #606060",
"@	c #282828",
"       ",
"...... ",
"+++++. ",
"@@@@+. ",
"@@@@+. ",
"@@@@+. ",
"@@@@+. ",
"@@@@+. ",
"@@@@+. ",
"@@@@+. ",
"@@@@+. ",
"@@@@+. ",
"@@@@+. ",
"@@@@+. ",
"@@@@+. ",
"@@@@+. ",
"@@@@+. ",
"@@@@+. ",
"@@@@+. ",
"@@@@+. ",
"@@@@+. ",
"@@@@+. ",
"@@@@+. ",
"@@@@+. ",
".@@@+. "};
