/* XPM */
static char * frameIB_xpm[] = {
"1 7 4 1",
" 	c None",
".	c #000000",
"+	c #282828",
"@	c #606060",
".",
"+",
"+",
"+",
"@",
".",
" "};
