/* XPM */
static char * maximizeA_xpm[] = {
"17 36 3 1",
" 	c #383838",
".	c #00D32B",
"+	c #000000",
"    .............",
"    .+++++++++++.",
"    .+.....+...+.",
"    .+.....+...+.",
"    .+.....+...+.",
"    .+.....+...+.",
"    .+.....+...+.",
"    .+++++++...+.",
"    .+.........+.",
"    .+.........+.",
"    .+.........+.",
"    .+++++++++++.",
"    .............",
"                 ",
"                 ",
"                 ",
"                 ",
"+++++++++++++++++",
"    .............",
"    .+++++++++++.",
"    .+.....+...+.",
"    .+.....+...+.",
"    .+.....+...+.",
"    .+.....+...+.",
"    .+.....+...+.",
"    .+++++++...+.",
"    .+.........+.",
"    .+.........+.",
"    .+.........+.",
"    .+++++++++++.",
"    .............",
"                 ",
"                 ",
"                 ",
"                 ",
"+++++++++++++++++"};
