/* XPM */
static char * titleAB_xpm[] = {
"1 18 4 1",
" 	c #808080",
".	c #202020",
"+	c #383838",
"@	c #000000",
" ",
".",
" ",
".",
" ",
".",
" ",
".",
" ",
".",
" ",
".",
"+",
"+",
"+",
"+",
"+",
"@"};
