/* XPM */
static char * buttonI_xpm[] = {
"60 19 5 1",
" 	c #909090",
".	c #F6F6F6",
"+	c #E8E8E8",
"@	c #727272",
"#	c #C6C6C6",
"                                                            ",
" .........................................................+@",
" .++++++++++++++++++++++++++++++++++++++++++++++++++++++++#@",
" .++++++++++++++++++++++++++++++++++++++++++++++++++++++++#@",
" .++++++++++++++++++++++++++++++++++++++++++++++++++++++++#@",
" .++++++++++++++++++++++++++++++++++++++++++++++++++++++++#@",
" .++++++++++++++++++++++++++++++++++++++++++++++++++++++++#@",
" .++++++++++++++++++++++++++++++++++++++++++++++++++++++++#@",
" .++++++++++++++++++++++++++++++++++++++++++++++++++++++++#@",
" .++++++++++++++++++++++++++++++++++++++++++++++++++++++++#@",
" .++++++++++++++++++++++++++++++++++++++++++++++++++++++++#@",
" .++++++++++++++++++++++++++++++++++++++++++++++++++++++++#@",
" .++++++++++++++++++++++++++++++++++++++++++++++++++++++++#@",
" .++++++++++++++++++++++++++++++++++++++++++++++++++++++++#@",
" .++++++++++++++++++++++++++++++++++++++++++++++++++++++++#@",
" .++++++++++++++++++++++++++++++++++++++++++++++++++++++++#@",
" .++++++++++++++++++++++++++++++++++++++++++++++++++++++++#@",
" +#########################################################@",
" @@@@@@@@@@@@@@@@@@@@@@@@@@@@@@@@@@@@@@@@@@@@@@@@@@@@@@@@@@@"};
