/* XPM */
static char * closeI_xpm[] = {
"17 48 3 1",
" 	c #9D9D9D",
".	c #E0E0E0",
"+	c #CFCFCF",
"                .",
" .............. .",
" .............. .",
" .............. .",
" .............. .",
" .............. .",
" .............. .",
" .............. .",
" .............. .",
" .............. .",
" .............. .",
" .............. .",
" .............. .",
" .............. .",
" .............. .",
"                .",
".................",
".................",
".................",
".................",
".................",
".................",
"+++++++++++++++++",
"                 ",
"                .",
" .............. .",
" .............. .",
" .............. .",
" .............. .",
" .............. .",
" .............. .",
" .............. .",
" .............. .",
" .............. .",
" .............. .",
" .............. .",
" .............. .",
" .............. .",
" .............. .",
"                .",
".................",
".................",
".................",
".................",
".................",
".................",
"+++++++++++++++++",
"                 "};
