/* XPM */
static char * closeA_xpm[] = {
"17 48 6 1",
" 	c #B38F00",
".	c #FFCB00",
"+	c #FFEA9C",
"@	c #E0E0E0",
"#	c #CFCFCF",
"$	c #9D9D9D",
"                .",
" ..............+.",
" ............. +.",
" ............. +.",
" ............. +.",
" ............. +.",
" ............. +.",
" ............. +.",
" ............. +.",
" ............. +.",
" ............. +.",
" ............. +.",
" ............. +.",
" ............. +.",
" .             +.",
" +++++++++++++++.",
".................",
".................",
".................",
".................",
"@@@@@@@@@@@@@@@@@",
"@@@@@@@@@@@@@@@@@",
"#################",
"$$$$$$$$$$$$$$$$$",
"                .",
" ..............+.",
" ............. +.",
" ............. +.",
" ............. +.",
" ............. +.",
" ............. +.",
" ............. +.",
" ............. +.",
" ............. +.",
" ............. +.",
" ............. +.",
" ............. +.",
" ............. +.",
" .             +.",
" +++++++++++++++.",
".................",
".................",
".................",
".................",
"@@@@@@@@@@@@@@@@@",
"@@@@@@@@@@@@@@@@@",
"#################",
"$$$$$$$$$$$$$$$$$"};
