/* XPM */
static char * frameATR_xpm[] = {
"6 30 9 1",
" 	c None",
".	c #9D9D9D",
"+	c #848484",
"@	c #FFEA9C",
"#	c #FFCB00",
"$	c #ECBC00",
"%	c #E0E0E0",
"&	c #CFCFCF",
"*	c #F6F6F6",
"      ",
"....+ ",
"@@@@+ ",
"###$+ ",
"###$+ ",
"###$+ ",
"###$+ ",
"###$+ ",
"###$+ ",
"###$+ ",
"###$+ ",
"###$+ ",
"###$+ ",
"###$+ ",
"###$+ ",
"###$+ ",
"###$+ ",
"###$+ ",
"###$+ ",
"###$+ ",
"###$+ ",
"###$+ ",
"###$+ ",
"###$+ ",
"###$+ ",
"###$+ ",
"%%%&+ ",
"%%%&+ ",
"&*%&+ ",
".*%&+ "};
