/* XPM */
static char * frameIBL_xpm[] = {
"6 6 6 1",
" 	c None",
".	c #9D9D9D",
"+	c #F6F6F6",
"@	c #DDDDDD",
"#	c #CFCFCF",
"$	c #848484",
" .+@#.",
" .+@++",
" .+@@@",
" .####",
" $$$$$",
"      "};
