/* XPM */
static char * frameATL_xpm[] = {
"6 30 7 1",
" 	c None",
".	c #9D9D9D",
"+	c #FFEA9C",
"@	c #FFCB00",
"#	c #F6F6F6",
"$	c #E0E0E0",
"%	c #CFCFCF",
"      ",
" .....",
" .++++",
" .+@@@",
" .+@@@",
" .+@@@",
" .+@@@",
" .+@@@",
" .+@@@",
" .+@@@",
" .+@@@",
" .+@@@",
" .+@@@",
" .+@@@",
" .+@@@",
" .+@@@",
" .+@@@",
" .+@@@",
" .+@@@",
" .+@@@",
" .+@@@",
" .+@@@",
" .+@@@",
" .+@@@",
" .+@@@",
" .+@@@",
" .#$$$",
" .#$$$",
" .#$%%",
" .#$%."};
