/* XPM */
static char * maximizeA_xpm[] = {
"17 48 5 1",
" 	c #FFCB00",
".	c #B38F00",
"+	c #E0E0E0",
"@	c #CFCFCF",
"#	c #9D9D9D",
" .........       ",
" .       .       ",
" .       .       ",
" .       .       ",
" .       ........",
" .       .      .",
" .       .      .",
" .       .      .",
" .........      .",
"     .          .",
"     .          .",
"     .          .",
"     .          .",
"     .          .",
"     .          .",
"     ............",
"                 ",
"                 ",
"                 ",
"                 ",
"+++++++++++++++++",
"+++++++++++++++++",
"@@@@@@@@@@@@@@@@@",
"#################",
" .........       ",
" .       .       ",
" .       .       ",
" .       .       ",
" .       ........",
" .       .      .",
" .       .      .",
" .       .      .",
" .........      .",
"     .          .",
"     .          .",
"     .          .",
"     .          .",
"     .          .",
"     .          .",
"     ............",
"                 ",
"                 ",
"                 ",
"                 ",
"+++++++++++++++++",
"+++++++++++++++++",
"@@@@@@@@@@@@@@@@@",
"#################"};
