/* XPM */
static char * titleAM_xpm[] = {
"4 24 4 1",
" 	c #FFCB00",
".	c #E0E0E0",
"+	c #CFCFCF",
"@	c #9D9D9D",
"    ",
"    ",
"    ",
"    ",
"    ",
"    ",
"    ",
"    ",
"    ",
"    ",
"    ",
"    ",
"    ",
"    ",
"    ",
"    ",
"    ",
"    ",
"    ",
"    ",
"....",
"....",
"++++",
"@@@@"};
