/* XPM */
static char * titleAT_xpm[] = {
"1 24 4 1",
" 	c #FFCB00",
".	c #E0E0E0",
"+	c #CFCFCF",
"@	c #9D9D9D",
" ",
" ",
" ",
" ",
" ",
" ",
" ",
" ",
" ",
" ",
" ",
" ",
" ",
" ",
" ",
" ",
" ",
" ",
" ",
" ",
".",
".",
"+",
"@"};
