/* XPM */
static char * titleIB_xpm[] = {
"1 24 3 1",
" 	c #E0E0E0",
".	c #CFCFCF",
"+	c #9D9D9D",
" ",
" ",
" ",
" ",
" ",
" ",
" ",
" ",
" ",
" ",
" ",
" ",
" ",
" ",
" ",
" ",
" ",
" ",
" ",
" ",
" ",
" ",
".",
"+"};
