/* XPM */
static char * start_xpm[] = {
"27 20 17 1",
" 	c None",
".	c #61BB46",
"+	c #E8B92F",
"@	c #D4B935",
"#	c #FDB827",
"$	c #F79021",
"%	c #F5821F",
"&	c #EA6333",
"*	c #E95F34",
"=	c #E85B36",
"-	c #E03A3E",
";	c #C73B6D",
">	c #C33B71",
",	c #963D97",
"'	c #885BA8",
")	c #8C54A3",
"!	c #009DDC",
"                           ",
"               ..          ",
"              ...          ",
"             ...           ",
"             ..            ",
"         ..... ....        ",
"       .............       ",
"       ++++++++++++@       ",
"      #############        ",
"      $$$$$$$$$$$$$        ",
"      %%%%%%%%%%%%%        ",
"      &***********=        ",
"      --------------       ",
"       ;;;;;;;;;;;;;>      ",
"       ,,,,,,,,,,,,,       ",
"        ''''''''''')       ",
"        !!!!!!!!!!!        ",
"         !!!!  !!!         ",
"                           ",
"                           "};
