/* XPM */
static char * taskbarbg_xpm[] = {
"1 26 4 1",
" 	c None",
".	c #707070",
"+	c #282828",
"@	c #000000",
".",
"+",
"+",
"+",
"+",
"+",
"+",
"+",
"+",
"+",
"+",
"+",
"+",
"+",
"+",
"+",
"+",
"+",
"+",
"+",
"+",
"+",
"+",
".",
"@",
" "};
