/* XPM */
static char * toolbuttonbg_xpm[] = {
"1 25 2 1",
" 	c #707070",
".	c #282828",
" ",
".",
".",
".",
".",
".",
".",
".",
".",
".",
".",
".",
".",
".",
".",
".",
".",
".",
".",
".",
".",
".",
".",
".",
" "};
